<svg width="40" height="40" viewBox="0 0 40 40" fill="none" xmlns="http://www.w3.org/2000/svg">
<path d="M36.3636 0H3.63636C1.63636 0 0 2 0 4.44444V35.5556C0 38 1.63636 40 3.63636 40H36.3636C38.3636 40 40 38 40 35.5556V4.44444C40 2 38.3636 0 36.3636 0ZM36.3636 33.3333C36.3636 34.5556 35.5455 35.5556 34.5455 35.5556H5.45455C4.45455 35.5556 3.63636 34.5556 3.63636 33.3333V6.66667C3.63636 5.44444 4.45455 4.44444 5.45455 4.44444H34.5455C35.5455 4.44444 36.3636 5.44444 36.3636 6.66667V33.3333ZM25.9818 12.6667C25.8136 12.4607 25.6138 12.2972 25.3939 12.1857C25.1739 12.0742 24.9381 12.0168 24.7 12.0168C24.4619 12.0168 24.2261 12.0742 24.0061 12.1857C23.7862 12.2972 23.5864 12.4607 23.4182 12.6667L20 16.8667L16.5636 12.6667C16.3953 12.4609 16.1955 12.2977 15.9755 12.1864C15.7556 12.075 15.5199 12.0177 15.2818 12.0177C15.0438 12.0177 14.808 12.075 14.5881 12.1864C14.3682 12.2977 14.1683 12.4609 14 12.6667C13.8317 12.8724 13.6981 13.1167 13.607 13.3855C13.5159 13.6543 13.4691 13.9424 13.4691 14.2333C13.4691 14.5243 13.5159 14.8124 13.607 15.0812C13.6981 15.35 13.8317 15.5943 14 15.8L17.4364 20L14 24.2C13.8317 24.4057 13.6981 24.65 13.607 24.9188C13.5159 25.1876 13.4691 25.4757 13.4691 25.7667C13.4691 26.0576 13.5159 26.3457 13.607 26.6145C13.6981 26.8834 13.8317 27.1276 14 27.3333C14.1683 27.5391 14.3682 27.7023 14.5881 27.8136C14.808 27.925 15.0438 27.9823 15.2818 27.9823C15.5199 27.9823 15.7556 27.925 15.9755 27.8136C16.1955 27.7023 16.3953 27.5391 16.5636 27.3333L20 23.1333L23.4364 27.3333C23.6047 27.5391 23.8045 27.7023 24.0245 27.8136C24.2444 27.925 24.4801 27.9823 24.7182 27.9823C24.9562 27.9823 25.192 27.925 25.4119 27.8136C25.6318 27.7023 25.8317 27.5391 26 27.3333C26.1683 27.1276 26.3019 26.8834 26.393 26.6145C26.4841 26.3457 26.5309 26.0576 26.5309 25.7667C26.5309 25.4757 26.4841 25.1876 26.393 24.9188C26.3019 24.65 26.1683 24.4057 26 24.2L22.5636 20L26 15.8C26.6909 14.9556 26.6909 13.5333 25.9818 12.6667V12.6667Z" fill="#D94040"/>
</svg>
