<svg width="665" height="926" viewBox="0 0 665 926" fill="none" xmlns="http://www.w3.org/2000/svg">
<g filter="url(#filter0_i)">
<path d="M332.779 187.647C275.185 187.567 219.729 209.457 177.718 248.854C175.591 250.759 173.865 253.07 172.643 255.651C171.421 258.232 170.726 261.031 170.6 263.884C170.474 266.737 170.919 269.586 171.908 272.265C172.898 274.944 174.412 277.398 176.362 279.484C178.313 281.569 180.66 283.245 183.267 284.411C185.873 285.578 188.686 286.213 191.541 286.278C194.396 286.343 197.235 285.837 199.892 284.791C202.549 283.744 204.97 282.178 207.014 280.183C241.126 248.291 286.081 230.549 332.779 230.549C379.478 230.549 424.432 248.291 458.544 280.183C460.588 282.178 463.009 283.744 465.666 284.791C468.323 285.837 471.162 286.343 474.017 286.278C476.872 286.213 479.685 285.578 482.292 284.411C484.898 283.245 487.245 281.569 489.196 279.484C491.146 277.398 492.661 274.944 493.65 272.265C494.64 269.586 495.084 266.737 494.958 263.884C494.832 261.031 494.137 258.232 492.915 255.651C491.693 253.07 489.967 250.759 487.84 248.854C445.829 209.457 390.373 187.567 332.779 187.647V187.647Z" fill="white"/>
<path d="M542.929 179.638C485.096 128.037 410.297 99.5183 332.789 99.5183C255.282 99.5183 180.483 128.037 122.65 179.638C120.476 181.495 118.696 183.767 117.413 186.322C116.13 188.876 115.37 191.662 115.179 194.514C114.988 197.366 115.369 200.228 116.299 202.931C117.229 205.634 118.691 208.123 120.597 210.254C122.503 212.384 124.816 214.111 127.399 215.335C129.983 216.559 132.785 217.254 135.641 217.379C138.496 217.505 141.348 217.058 144.029 216.066C146.71 215.074 149.166 213.555 151.251 211.601C201.219 167.037 265.832 142.41 332.784 142.41C399.737 142.41 464.35 167.037 514.317 211.601C518.559 215.393 524.133 217.346 529.814 217.029C535.494 216.712 540.817 214.151 544.61 209.91C548.402 205.669 550.355 200.095 550.038 194.414C549.721 188.733 547.16 183.411 542.919 179.618L542.929 179.638Z" fill="white"/>
</g>
<g filter="url(#filter1_i)">
<path d="M41.5625 427.25H623.438V842.875C623.438 864.921 614.68 886.064 599.091 901.653C583.502 917.242 562.359 926 540.312 926H124.688C102.641 926 81.4982 917.242 65.9092 901.653C50.3203 886.064 41.5625 864.921 41.5625 842.875V427.25ZM332.5 323.344C304.942 323.344 278.513 334.291 259.027 353.777C239.541 373.263 228.594 399.692 228.594 427.25H187.031C187.031 388.669 202.357 351.669 229.638 324.388C256.919 297.107 293.919 281.781 332.5 281.781C371.081 281.781 408.081 297.107 435.362 324.388C462.643 351.669 477.969 388.669 477.969 427.25H436.406C436.406 399.692 425.459 373.263 405.973 353.777C386.487 334.291 360.058 323.344 332.5 323.344V323.344Z" fill="white"/>
</g>
<defs>
<filter id="filter0_i" x="71" y="0" width="533" height="527" filterUnits="userSpaceOnUse" color-interpolation-filters="sRGB">
<feFlood flood-opacity="0" result="BackgroundImageFix"/>
<feBlend mode="normal" in="SourceGraphic" in2="BackgroundImageFix" result="shape"/>
<feColorMatrix in="SourceAlpha" type="matrix" values="0 0 0 0 0 0 0 0 0 0 0 0 0 0 0 0 0 0 127 0" result="hardAlpha"/>
<feOffset dx="10" dy="4"/>
<feGaussianBlur stdDeviation="5"/>
<feComposite in2="hardAlpha" operator="arithmetic" k2="-1" k3="1"/>
<feColorMatrix type="matrix" values="0 0 0 0 0 0 0 0 0 0 0 0 0 0 0 0 0 0 0.25 0"/>
<feBlend mode="normal" in2="shape" result="effect1_innerShadow"/>
</filter>
<filter id="filter1_i" x="0" y="261" width="675" height="669" filterUnits="userSpaceOnUse" color-interpolation-filters="sRGB">
<feFlood flood-opacity="0" result="BackgroundImageFix"/>
<feBlend mode="normal" in="SourceGraphic" in2="BackgroundImageFix" result="shape"/>
<feColorMatrix in="SourceAlpha" type="matrix" values="0 0 0 0 0 0 0 0 0 0 0 0 0 0 0 0 0 0 127 0" result="hardAlpha"/>
<feOffset dx="10" dy="4"/>
<feGaussianBlur stdDeviation="5"/>
<feComposite in2="hardAlpha" operator="arithmetic" k2="-1" k3="1"/>
<feColorMatrix type="matrix" values="0 0 0 0 0 0 0 0 0 0 0 0 0 0 0 0 0 0 0.25 0"/>
<feBlend mode="normal" in2="shape" result="effect1_innerShadow"/>
</filter>
</defs>
</svg>
