<svg width="200" height="200" viewBox="0 0 239 219" fill="none" xmlns="http://www.w3.org/2000/svg">
<path fill-rule="evenodd" clip-rule="evenodd" d="M184.609 218.39C216.819 197.087 238.066 160.541 238.066 119.033C238.066 53.2928 184.773 0 119.033 0C53.2928 0 0 53.2928 0 119.033C0 160.541 21.2463 197.087 53.4571 218.39C55.6065 204.564 62.0904 191.676 72.1068 181.659C84.5524 169.214 101.432 162.222 119.033 162.222C136.634 162.222 153.513 169.214 165.959 181.659C175.975 191.676 182.459 204.564 184.609 218.39ZM140.101 136.87C133.865 141.037 126.533 143.261 119.033 143.261C108.975 143.261 99.3298 139.266 92.218 132.154C85.1063 125.042 81.1109 115.397 81.1109 105.339C81.1109 97.8387 83.335 90.5069 87.5019 84.2707C91.6688 78.0344 97.5914 73.1739 104.521 70.3036C111.45 67.4334 119.075 66.6824 126.431 68.1457C133.787 69.6089 140.544 73.2206 145.848 78.5241C151.151 83.8276 154.763 90.5846 156.226 97.9408C157.689 105.297 156.938 112.922 154.068 119.851C151.198 126.78 146.337 132.703 140.101 136.87Z" fill="#4F4F4F"/>
</svg>
